<svg width="512" height="512" viewBox="0 0 512 512" fill="none" xmlns="http://www.w3.org/2000/svg">
<rect width="512" height="512" fill="white"/>
<path d="M118 432.213V189.649L244 231.649V472.113L118 432.213Z" stroke="#555555" stroke-width="24"/>
<path d="M394 432.213V189.649L268 231.649V472.113L394 432.213Z" stroke="#555555" stroke-width="24"/>
<path d="M254.465 215.883L136.359 173.313L254.463 133.474L375.068 173.314L254.465 215.883Z" stroke="#555555" stroke-width="20"/>
<path d="M337 145C337 147.023 336.091 149.773 332.751 153.176C329.368 156.623 323.98 160.186 316.536 163.394C301.681 169.795 280.463 174 256.5 174C232.537 174 211.319 169.795 196.464 163.394C189.02 160.186 183.632 156.623 180.249 153.176C176.909 149.773 176 147.023 176 145C176 142.977 176.909 140.227 180.249 136.824C183.632 133.377 189.02 129.814 196.464 126.606C211.319 120.205 232.537 116 256.5 116C280.463 116 301.681 120.205 316.536 126.606C323.98 129.814 329.368 133.377 332.751 136.824C336.091 140.227 337 142.977 337 145Z" fill="white" stroke="#555555" stroke-width="20"/>
<path d="M337 106.5C337 112.872 331.458 121.431 316.081 128.992C301.35 136.236 280.298 141 256.5 141C232.702 141 211.65 136.236 196.919 128.992C181.542 121.431 176 112.872 176 106.5C176 100.128 181.542 91.5689 196.919 84.0076C211.65 76.7642 232.702 72 256.5 72C280.298 72 301.35 76.7642 316.081 84.0076C331.458 91.5689 337 100.128 337 106.5Z" fill="white" stroke="#555555" stroke-width="20"/>
<path d="M176 106V146" stroke="#555555" stroke-width="20"/>
<path d="M337 106V146" stroke="#555555" stroke-width="20"/>
</svg>
