<svg width="512" height="512" viewBox="0 0 512 512" fill="none" xmlns="http://www.w3.org/2000/svg">
<rect x="300" y="20" width="168" height="472" stroke="white" stroke-width="40"/>
<path d="M434 112C434 139.614 411.614 162 384 162C356.386 162 334 139.614 334 112C334 84.3858 356.386 62 384 62C411.614 62 434 84.3858 434 112Z" fill="white"/>
<path d="M434 400C434 427.614 411.614 450 384 450C356.386 450 334 427.614 334 400C334 372.386 356.386 350 384 350C411.614 350 434 372.386 434 400Z" fill="white"/>
<path d="M434 256C434 283.614 411.614 306 384 306C356.386 306 334 283.614 334 256C334 228.386 356.386 206 384 206C411.614 206 434 228.386 434 256Z" fill="white"/>
<rect x="44" y="164" width="168" height="328" stroke="white" stroke-width="40"/>
<path d="M178 400C178 427.614 155.614 450 128 450C100.386 450 78 427.614 78 400C78 372.386 100.386 350 128 350C155.614 350 178 372.386 178 400Z" fill="white"/>
<path d="M178 256C178 283.614 155.614 306 128 306C100.386 306 78 283.614 78 256C78 228.386 100.386 206 128 206C155.614 206 178 228.386 178 256Z" fill="white"/>
</svg>
